<svg xmlns="http://www.w3.org/2000/svg" version="1.1" xmlns:xlink="http://www.w3.org/1999/xlink" viewBox="0 0 200 200"><rect width="200" height="200" fill="url('#gradient')"></rect><defs><linearGradient id="gradient" gradientTransform="rotate(45 0.5 0.5)"><stop offset="0%" stop-color="#fa7439"></stop><stop offset="100%" stop-color="#eb2e40"></stop></linearGradient></defs><g><g fill="#f3ede7" transform="matrix(3.263456090651558,0,0,3.263456090651558,8.851984006824978,123.19123056725132)" stroke="#d13f3f" stroke-width="0"><path d="M12.24-14.22L12.24-11.57L7.97-11.57L7.97 0L4.54 0L4.54-11.57L0.35-11.57L0.35-14.22L12.24-14.22ZM25.45-7.47L25.45-6.82Q25.45-4.74 24.68-3.13Q23.91-1.53 22.49-0.67Q21.06 0.20 19.25 0.20Q17.43 0.20 16.03-0.64Q14.62-1.47 13.83-3.03Q13.05-4.58 13.01-6.59L13.01-6.59L13.01-7.39Q13.01-9.48 13.77-11.08Q14.54-12.68 15.97-13.54Q17.40-14.41 19.23-14.41L19.23-14.41Q21.04-14.41 22.45-13.55Q23.87-12.70 24.65-11.11Q25.44-9.52 25.45-7.47L25.45-7.47ZM21.96-6.76L21.96-7.41Q21.96-9.53 21.25-10.63Q20.55-11.73 19.23-11.73L19.23-11.73Q16.65-11.73 16.50-7.86L16.50-7.86L16.49-6.82Q16.49-4.73 17.19-3.60Q17.88-2.48 19.25-2.48L19.25-2.48Q20.55-2.48 21.25-3.58Q21.95-4.69 21.96-6.76L21.96-6.76ZM27.22-14.22L31.72-14.22L34.89-4.33L38.06-14.22L42.57-14.22L42.57 0L39.13 0L39.13-3.32L39.46-10.12L36.03 0L33.76 0L30.31-10.13L30.64-3.32L30.64 0L27.22 0L27.22-14.22ZM52.08-3.78L52.08-3.78Q52.08-4.53 51.55-4.95Q51.02-5.37 49.68-5.82Q48.34-6.27 47.49-6.69L47.49-6.69Q44.73-8.05 44.73-10.42L44.73-10.42Q44.73-11.60 45.42-12.50Q46.10-13.41 47.36-13.91Q48.62-14.41 50.20-14.41L50.20-14.41Q51.73-14.41 52.94-13.87Q54.16-13.32 54.83-12.31Q55.51-11.30 55.51-10L55.51-10L52.09-10Q52.09-10.87 51.56-11.35Q51.03-11.83 50.12-11.83L50.12-11.83Q49.20-11.83 48.67-11.42Q48.13-11.02 48.13-10.39L48.13-10.39Q48.13-9.84 48.72-9.40Q49.31-8.96 50.78-8.48Q52.26-8.01 53.20-7.46L53.20-7.46Q55.51-6.13 55.51-3.80L55.51-3.80Q55.51-1.93 54.10-0.87Q52.70 0.20 50.24 0.20L50.24 0.20Q48.52 0.20 47.11-0.42Q45.71-1.04 45.00-2.12Q44.30-3.20 44.30-4.61L44.30-4.61L47.73-4.61Q47.73-3.47 48.33-2.92Q48.92-2.38 50.24-2.38L50.24-2.38Q51.09-2.38 51.59-2.75Q52.08-3.12 52.08-3.78Z"></path></g></g></svg>